<svg id="KidsLabel" xmlns="http://www.w3.org/2000/svg" xmlns:xlink="http://www.w3.org/1999/xlink" width="36" height="18" viewBox="0 0 36 18">
  <defs>
    <clipPath id="clip-path">
      <rect id="Прямоугольник_37" data-name="Прямоугольник 37" width="36" height="18" fill="none"/>
    </clipPath>
  </defs>
  <rect id="Прямоугольник_35" data-name="Прямоугольник 35" width="36" height="18" fill="#ff9300"/>
  <path id="Контур_73" data-name="Контур 73" d="M4.946,4.866h1.5v3.9l3.815-3.9H12.11L8.69,8.286l3.66,5.148H10.478L7.67,9.342,6.446,10.554v2.88h-1.5Z" fill="#fff"/>
  <rect id="Прямоугольник_36" data-name="Прямоугольник 36" width="1.5" height="8.568" transform="translate(13.166 4.866)" fill="#fff"/>
  <g id="Сгруппировать_80" data-name="Сгруппировать 80">
    <g id="Сгруппировать_79" data-name="Сгруппировать 79" clip-path="url(#clip-path)">
      <path id="Контур_74" data-name="Контур 74" d="M16.5,4.866h3.552a4,4,0,0,1,1.7.336,3.156,3.156,0,0,1,1.176.918,3.935,3.935,0,0,1,.678,1.361,6.377,6.377,0,0,1,0,3.336,3.945,3.945,0,0,1-.678,1.363,3.187,3.187,0,0,1-1.176.918,4.012,4.012,0,0,1-1.7.336H16.5ZM18,12.209h1.476a3.745,3.745,0,0,0,1.434-.233,2.1,2.1,0,0,0,.876-.649,2.328,2.328,0,0,0,.432-.972,6.436,6.436,0,0,0,0-2.412,2.341,2.341,0,0,0-.432-.971,2.1,2.1,0,0,0-.876-.648,3.722,3.722,0,0,0-1.434-.235H18Z" fill="#fff"/>
      <path id="Контур_75" data-name="Контур 75" d="M26.15,10.577a1.918,1.918,0,0,0,.168.84,1.5,1.5,0,0,0,.468.57,1.965,1.965,0,0,0,.689.324,3.294,3.294,0,0,0,.847.1,2.758,2.758,0,0,0,.84-.113,1.713,1.713,0,0,0,.563-.3,1.062,1.062,0,0,0,.313-.413,1.266,1.266,0,0,0,.095-.475,1.029,1.029,0,0,0-.221-.726,1.279,1.279,0,0,0-.487-.33,10.4,10.4,0,0,0-1.061-.317c-.4-.1-.9-.23-1.494-.391a3.148,3.148,0,0,1-.918-.378,2.158,2.158,0,0,1-.582-.522,1.831,1.831,0,0,1-.307-.611,2.5,2.5,0,0,1-.09-.661,2.22,2.22,0,0,1,.271-1.122,2.41,2.41,0,0,1,.714-.786,3.135,3.135,0,0,1,1.007-.462,4.417,4.417,0,0,1,1.14-.15,4.531,4.531,0,0,1,1.267.174,3.15,3.15,0,0,1,1.044.522,2.483,2.483,0,0,1,.977,2.04h-1.5a1.447,1.447,0,0,0-.563-1.17,2.241,2.241,0,0,0-1.284-.341,2.9,2.9,0,0,0-.541.053,1.709,1.709,0,0,0-.5.18,1.088,1.088,0,0,0-.378.342.918.918,0,0,0-.151.54.921.921,0,0,0,.282.715,1.823,1.823,0,0,0,.739.389l.378.1.738.2.8.21c.26.067.445.118.557.149a2.494,2.494,0,0,1,.733.36,2.323,2.323,0,0,1,.521.522,2.209,2.209,0,0,1,.313.63,2.335,2.335,0,0,1,.1.672,2.415,2.415,0,0,1-.294,1.231,2.514,2.514,0,0,1-.774.834,3.354,3.354,0,0,1-1.092.473,5.224,5.224,0,0,1-1.248.151,5.146,5.146,0,0,1-1.38-.181,3.247,3.247,0,0,1-1.128-.552,2.679,2.679,0,0,1-.767-.954,3.162,3.162,0,0,1-.3-1.374Z" fill="#fff"/>
    </g>
  </g>
</svg>
