<svg id="Сгруппировать_86" data-name="Сгруппировать 86" xmlns="http://www.w3.org/2000/svg" xmlns:xlink="http://www.w3.org/1999/xlink" width="36" height="18" viewBox="0 0 36 18">
  <defs>
    <clipPath id="clip-path">
      <rect id="Прямоугольник_42" data-name="Прямоугольник 42" width="36" height="18" fill="none"/>
    </clipPath>
  </defs>
  <rect id="Прямоугольник_41" data-name="Прямоугольник 41" width="36" height="18" fill="#db0819"/>
  <g id="Сгруппировать_85" data-name="Сгруппировать 85">
    <g id="Сгруппировать_84" data-name="Сгруппировать 84" clip-path="url(#clip-path)">
      <path id="Контур_79" data-name="Контур 79" d="M8.768,11.027a.9.9,0,0,0-.352-.765A4.622,4.622,0,0,0,7.151,9.7,8.939,8.939,0,0,1,5.7,9.117,2.366,2.366,0,0,1,4.25,7a2.062,2.062,0,0,1,.39-1.234,2.545,2.545,0,0,1,1.119-.846,4.2,4.2,0,0,1,1.638-.3,3.833,3.833,0,0,1,1.629.331,2.6,2.6,0,0,1,1.11.934,2.447,2.447,0,0,1,.4,1.372H8.774A1.152,1.152,0,0,0,8.4,6.342a1.521,1.521,0,0,0-1.037-.325,1.618,1.618,0,0,0-1,.273.857.857,0,0,0-.358.717.825.825,0,0,0,.419.7,4.75,4.75,0,0,0,1.234.527A5.333,5.333,0,0,1,9.846,9.351a2.23,2.23,0,0,1,.686,1.664,2.055,2.055,0,0,1-.838,1.738,3.669,3.669,0,0,1-2.256.629,4.361,4.361,0,0,1-1.793-.36,2.833,2.833,0,0,1-1.233-.987,2.524,2.524,0,0,1-.425-1.453H5.75q0,1.411,1.688,1.412a1.638,1.638,0,0,0,.978-.255.828.828,0,0,0,.352-.712" fill="#fff"/>
      <path id="Контур_80" data-name="Контур 80" d="M16.537,11.508H13.455l-.586,1.758H11l3.176-8.532h1.629L19,13.266h-1.87ZM13.93,10.084h2.133L14.991,6.891Z" fill="#fff"/>
      <path id="Контур_81" data-name="Контур 81" d="M21.554,11.854h3.732v1.412H19.8V4.734h1.758Z" fill="#fff"/>
      <path id="Контур_82" data-name="Контур 82" d="M31.427,9.568H28.052v2.285h3.961v1.412H26.294V4.734H32V6.158H28.052V8.191h3.375Z" fill="#fff"/>
    </g>
  </g>
</svg>
