<svg xmlns="http://www.w3.org/2000/svg" width="77" height="32" viewBox="0 0 77 32" fill="none">
  <g clip-path="url(#clip0_219_128)">
    <path d="M28.0987 22.0759C26.716 22.0759 25.3578 21.7332 24.1471 21.0837C20.5641 19.1533 18.8187 15.058 19.9373 11.2153C19.9803 11.0649 19.9065 10.8965 19.7529 10.8364C19.3596 10.668 18.9417 10.5778 18.5176 10.5718C18.0567 10.5778 17.608 10.6801 17.1901 10.8725C17.0426 10.9386 16.9689 11.095 17.0119 11.2453C18.1058 15.076 16.3728 19.1413 12.8206 21.0717C8.81971 23.2065 3.81097 21.7632 1.62925 17.8483C1.59237 17.7762 1.54935 17.71 1.51248 17.6379C0.480005 15.6353 0.295634 13.308 1.01468 11.1792C1.04541 11.083 1.01468 10.9747 0.940931 10.9026L0.436985 10.4515C0.228031 10.2651 0.105118 10.0065 0.0928263 9.7299L0.000640893 7.50484C-0.0116505 7.28835 0.154283 7.10794 0.375528 7.0899L4.36408 6.75915H4.37637C4.6222 6.58475 4.88032 6.43441 5.13844 6.2961C6.34914 5.65264 7.71348 5.30986 9.09012 5.30385C11.4193 5.30385 13.6318 6.27806 15.1866 7.97391L15.2112 7.99796L15.242 7.98594C17.3131 7.10794 19.6668 7.09591 21.7502 7.95587L21.781 7.9679L21.7994 7.94384C23.3543 6.26603 25.5544 5.30385 27.8713 5.30385C29.2541 5.30385 30.6123 5.64662 31.823 6.2961C33.9863 7.45673 35.5473 9.45327 36.1189 11.8046C36.1189 11.8287 36.1189 11.8527 36.1066 11.8708C36.0943 11.8948 36.0697 11.9068 36.0451 11.9129L32.6957 12.6225C32.6957 12.6225 32.6834 12.6225 32.6773 12.6225C32.6343 12.6225 32.5974 12.5924 32.5912 12.5503C32.2962 11.2153 31.4236 10.0787 30.2006 9.41719C29.5368 9.06238 28.7871 8.87596 28.0311 8.87596C26.2366 8.88799 24.6018 9.89227 23.809 11.4739C22.5799 13.8011 23.4464 16.6576 25.7695 17.9566C26.4333 18.3114 27.1769 18.4978 27.9389 18.4978C29.2849 18.4918 30.5632 17.9205 31.4543 16.9282C31.4727 16.9102 31.4973 16.8982 31.5219 16.8982C31.5403 16.8982 31.5649 16.9042 31.5772 16.9162L34.3243 19.1292C34.3243 19.1292 34.355 19.1653 34.355 19.1894C34.355 19.2134 34.355 19.2375 34.3366 19.2555C32.7817 21.0416 30.5078 22.0759 28.1049 22.0759M8.92418 8.88197C8.16826 8.88197 7.42463 9.06839 6.75475 9.4232C4.43168 10.7222 3.56514 13.5786 4.79428 15.9059C5.58707 17.4815 7.22183 18.4858 9.01637 18.5038C9.77229 18.5038 10.5159 18.3174 11.1858 17.9626C13.5089 16.6697 14.3754 13.8072 13.1463 11.4799C12.3535 9.90429 10.7187 8.90001 8.92418 8.88197Z" fill="white"/>
    <path d="M66.5769 21.6911C66.4786 21.6911 66.3864 21.649 66.3249 21.5708L60.1731 13.7711V21.6009C60.1731 21.649 60.1301 21.6911 60.0809 21.6911H56.246C56.1968 21.6911 56.1538 21.649 56.1538 21.6009V-0.336961C56.1538 -0.38507 56.1968 -0.427166 56.246 -0.427166H60.0748C60.1239 -0.427166 60.167 -0.38507 60.167 -0.336961V12.8871L65.8825 5.89319C65.9439 5.82102 66.03 5.77893 66.1283 5.77893H70.1967C70.1967 5.77893 70.2397 5.79697 70.2397 5.82102C70.2397 5.83305 70.2397 5.83906 70.2275 5.85109L64.7025 12.845C64.4751 13.1336 64.4751 13.5305 64.7025 13.8132L70.9035 21.6189C70.9035 21.6189 70.9158 21.667 70.8973 21.679C70.8912 21.679 70.8789 21.6911 70.8666 21.6911H66.5646H66.5769Z" fill="white"/>
    <path d="M73.1097 5.77893H76.4223C76.6128 5.77893 76.7726 5.92927 76.7726 6.1217V21.3543C76.7726 21.5407 76.6189 21.6971 76.4223 21.6971H73.1097C72.9192 21.6971 72.7594 21.5467 72.7594 21.3543V6.11569C72.7594 5.92927 72.9131 5.77291 73.1097 5.77291V5.77893Z" fill="white"/>
    <path d="M48.9081 21.6911C48.8589 21.6911 48.8159 21.649 48.8159 21.6009V12.1354C48.7974 10.3313 47.2856 8.88799 45.4419 8.90603C45.4173 8.90603 45.3927 8.90603 45.3681 8.90603H45.3374C43.9915 8.88799 42.7194 9.51341 41.9327 10.5838L41.9266 21.6009C41.9266 21.649 41.8835 21.6911 41.8344 21.6911H37.9995C37.9503 21.6911 37.9073 21.649 37.9073 21.6009V-0.336961C37.9073 -0.38507 37.9503 -0.427166 37.9995 -0.427166H41.8282C41.8774 -0.427166 41.9204 -0.38507 41.9204 -0.336961V6.94558C41.9204 6.98767 41.9573 7.02375 42.0003 7.02375C42.0187 7.02375 42.0433 7.01774 42.0556 6.9997C42.4735 6.6028 44.0653 5.30385 47.0828 5.30385C50.3216 5.30385 52.7921 7.91979 52.829 11.3897V21.6009C52.829 21.649 52.786 21.6911 52.7368 21.6911H48.9081Z" fill="white"/>
    <path d="M74.7753 3.89665C73.5461 3.89665 72.5505 2.92244 72.5505 1.71971C72.5505 0.516975 73.5461 -0.457237 74.7753 -0.457237C76.0044 -0.457237 77 0.516975 77 1.71971C77 2.92244 76.0044 3.89665 74.7753 3.89665Z" fill="white"/>
    <path d="M4.21663 30.489V26.4358H5.59326C6.20168 26.3877 6.73636 26.8267 6.78552 27.4221C6.78552 27.4461 6.78552 27.4642 6.78552 27.4882C6.78552 27.7468 6.66876 27.9874 6.4598 28.1377L6.36762 28.1858L6.46595 28.2159C6.89 28.3903 7.16656 28.7932 7.1727 29.2442C7.1727 29.9358 6.58886 30.4951 5.88211 30.489C5.84523 30.489 5.80836 30.489 5.77149 30.489H4.21663ZM5.60555 29.8275C5.93127 29.8636 6.23241 29.6351 6.26929 29.3164C6.26929 29.2923 6.26929 29.2743 6.26929 29.2502C6.26314 28.9195 5.98044 28.6549 5.63628 28.6669C5.62399 28.6669 5.6117 28.6669 5.59326 28.6669H5.05244V29.8275H5.60555ZM5.06473 28.0174H5.43347C5.68545 28.0475 5.91284 27.8671 5.94357 27.6205C5.94357 27.5965 5.94357 27.5784 5.94357 27.5544C5.94971 27.3018 5.7469 27.0913 5.48878 27.0853C5.47035 27.0853 5.45191 27.0853 5.43347 27.0853H5.06473V28.0174Z" fill="white"/>
    <path d="M15.8566 30.5853C14.6582 30.6213 13.6564 29.6952 13.6257 28.5226C13.5888 27.3499 14.5352 26.3697 15.7336 26.3396C15.7767 26.3396 15.8197 26.3396 15.8627 26.3396C17.0673 26.3095 18.069 27.2417 18.1059 28.4203C18.1059 28.4324 18.1059 28.4444 18.1059 28.4564C18.112 29.6231 17.1533 30.5792 15.961 30.5853C15.9303 30.5853 15.8996 30.5853 15.8627 30.5853M15.8566 27.1334C15.1068 27.0973 14.4676 27.6626 14.4308 28.3963C14.3939 29.1299 14.9716 29.7554 15.7214 29.7915C16.4711 29.8275 17.1103 29.2623 17.1472 28.5286C17.1472 28.5045 17.1472 28.4805 17.1472 28.4564C17.1717 27.7528 16.6125 27.1575 15.8934 27.1334C15.8811 27.1334 15.8689 27.1334 15.8566 27.1334Z" fill="white"/>
    <path d="M26.0769 30.5792C25.0382 30.5792 24.2885 29.9659 24.2885 29.1179V26.4358H25.2287V29.0277C25.2287 29.4487 25.5791 29.7915 26.0031 29.7915C26.0338 29.7915 26.0584 29.7915 26.083 29.7915C26.5193 29.8336 26.9065 29.5208 26.9495 29.0999C26.9495 29.0758 26.9495 29.0578 26.9495 29.0337V26.4418H27.8652V29.1239C27.8652 29.9719 27.1093 30.5853 26.0707 30.5853" fill="white"/>
    <path d="M35.6641 30.489V27.1454H34.3797V26.4358H37.8704V27.1515H36.5982V30.489H35.6641Z" fill="white"/>
    <path d="M45.7245 26.4358H44.7842V30.489H45.7245V26.4358Z" fill="white"/>
    <path d="M56.2276 31.4572C55.8281 31.4572 55.4348 31.343 55.0906 31.1325C54.7895 30.9581 54.3654 30.7176 54.0766 30.5732C52.9642 30.471 52.1161 29.5569 52.11 28.4624C52.1407 27.2537 53.167 26.2975 54.4023 26.3216C55.6007 26.3516 56.5595 27.2898 56.5902 28.4624C56.6025 29.2923 56.0739 30.044 55.2812 30.3327L55.2504 30.3447V30.4109L55.2873 30.4289C55.4655 30.471 55.6315 30.5432 55.7851 30.6394C56.0002 30.7476 56.2399 30.8078 56.4857 30.8138C56.5902 30.8138 56.6947 30.8078 56.7991 30.7837L56.3505 31.4452C56.3075 31.4512 56.2706 31.4572 56.2276 31.4512M54.3593 27.1334C53.6157 27.0913 52.9765 27.6506 52.9335 28.3782C52.8905 29.1059 53.462 29.7313 54.2057 29.7734C54.9493 29.8155 55.5884 29.2562 55.6315 28.5286C55.6315 28.5045 55.6315 28.4865 55.6315 28.4624C55.6622 27.7588 55.0968 27.1635 54.3777 27.1334C54.3716 27.1334 54.3654 27.1334 54.3593 27.1334Z" fill="white"/>
    <path d="M64.6226 30.5792C63.5839 30.5792 62.8342 29.9659 62.8342 29.1179V26.4358H63.7744V29.0277C63.7744 29.4487 64.1247 29.7915 64.5549 29.7915C64.5857 29.7915 64.6103 29.7915 64.6348 29.7915C65.0712 29.8336 65.4584 29.5208 65.5014 29.0999C65.5014 29.0758 65.5014 29.0578 65.5014 29.0337V26.4418H66.4109V29.1239C66.4109 29.9719 65.655 30.5853 64.6164 30.5853" fill="white"/>
    <path d="M72.7902 30.489V26.4358H75.1747V27.1695H73.7305V28.0836H74.9104V28.8293H73.7305V29.7494H75.3591V30.483H72.7902V30.489Z" fill="white"/>
  </g>
  <defs>
    <clipPath id="clip0_219_128">
      <rect width="77" height="32" fill="white"/>
    </clipPath>
  </defs>
</svg>