<svg width="131" height="54" viewBox="0 0 131 54" fill="none" xmlns="http://www.w3.org/2000/svg">
<g clip-path="url(#clip0_465_1334)">
<path d="M48.0615 37.6022C45.7269 37.6022 43.4339 37.0235 41.3898 35.927C35.3407 32.6679 32.394 25.7538 34.2824 19.266C34.355 19.0122 34.2305 18.7279 33.9711 18.6264C33.3071 18.3421 32.6015 18.1898 31.8856 18.1797C31.1074 18.1898 30.3499 18.3624 29.6444 18.6873C29.3954 18.799 29.2709 19.063 29.3435 19.3168C31.1904 25.7842 28.2644 32.6476 22.2672 35.9067C15.5125 39.511 7.05617 37.0743 3.37275 30.4647C3.3105 30.3429 3.23786 30.2312 3.17561 30.1094C1.43247 26.7284 1.12119 22.7993 2.33517 19.2051C2.38705 19.0427 2.33517 18.8599 2.21066 18.7381L1.35984 17.9766C1.00706 17.6619 0.799542 17.2253 0.77879 16.7583L0.623152 13.0017C0.602401 12.6362 0.882548 12.3316 1.25608 12.3011L7.99 11.7427H8.01075C8.42579 11.4483 8.86157 11.1945 9.29735 10.9609C11.3414 9.87458 13.6448 9.29586 15.969 9.28571C19.9015 9.28571 23.6368 10.9305 26.2619 13.7936L26.3034 13.8342L26.3552 13.8139C29.8519 12.3316 33.8258 12.3113 37.3433 13.7631L37.3951 13.7835L37.4263 13.7428C40.0513 10.9102 43.7659 9.28571 47.6776 9.28571C50.0122 9.28571 52.3052 9.86442 54.3493 10.9609C58.0016 12.9205 60.637 16.2912 61.602 20.261C61.602 20.3016 61.602 20.3422 61.5812 20.3727C61.5605 20.4133 61.519 20.4336 61.4775 20.4438L55.8226 21.6418C55.8226 21.6418 55.8019 21.6418 55.7915 21.6418C55.7189 21.6418 55.6566 21.5911 55.6462 21.52C55.1482 19.266 53.6748 17.3471 51.61 16.2303C50.4894 15.6313 49.2236 15.3165 47.9474 15.3165C44.9176 15.3369 42.1576 17.0324 40.8192 19.7026C38.744 23.6318 40.207 28.4544 44.1291 30.6475C45.2496 31.2465 46.5051 31.5612 47.7917 31.5612C50.064 31.5511 52.2222 30.5865 53.7267 28.9113C53.7578 28.8809 53.7993 28.8605 53.8408 28.8605C53.872 28.8605 53.9135 28.8707 53.9342 28.891L58.5722 32.6273C58.5722 32.6273 58.6241 32.6882 58.6241 32.7288C58.6241 32.7694 58.6241 32.81 58.593 32.8405C55.9679 35.8559 52.1288 37.6022 48.0719 37.6022M15.6889 15.3267C14.4126 15.3267 13.1572 15.6414 12.0262 16.2405C8.10413 18.4335 6.64114 23.2561 8.71631 27.1853C10.0548 29.8454 12.8148 31.5409 15.8445 31.5714C17.1207 31.5714 18.3762 31.2566 19.5072 30.6576C23.4293 28.4747 24.8922 23.6419 22.8171 19.7128C21.4786 17.0527 18.7186 15.3572 15.6889 15.3267Z" fill="black"/>
<path d="M113.025 36.9524C112.859 36.9524 112.703 36.8814 112.599 36.7494L102.213 23.581V36.8001C102.213 36.8814 102.14 36.9524 102.057 36.9524H95.5829C95.4999 36.9524 95.4272 36.8814 95.4272 36.8001V-0.237732C95.4272 -0.318956 95.4999 -0.390026 95.5829 -0.390026H102.047C102.13 -0.390026 102.203 -0.318956 102.203 -0.237732V22.0886L111.852 10.2807C111.956 10.1589 112.101 10.0878 112.267 10.0878H119.136C119.136 10.0878 119.209 10.1183 119.209 10.1589C119.209 10.1792 119.209 10.1893 119.188 10.2096L109.86 22.0175C109.476 22.5048 109.476 23.1749 109.86 23.6521L120.329 36.8306C120.329 36.8306 120.35 36.9118 120.319 36.9321C120.309 36.9321 120.288 36.9524 120.267 36.9524H113.004H113.025Z" fill="black"/>
<path d="M124.054 10.0878H129.647C129.968 10.0878 130.238 10.3416 130.238 10.6665V36.3839C130.238 36.6986 129.979 36.9626 129.647 36.9626H124.054C123.732 36.9626 123.463 36.7088 123.463 36.3839V10.6564C123.463 10.3416 123.722 10.0776 124.054 10.0776V10.0878Z" fill="black"/>
<path d="M83.1941 36.9524C83.1111 36.9524 83.0385 36.8814 83.0385 36.8001V20.8194C83.0074 17.7736 80.4549 15.3369 77.3422 15.3673C77.3007 15.3673 77.2591 15.3673 77.2176 15.3673H77.1658C74.8935 15.3369 72.7457 16.3928 71.4176 18.2L71.4072 36.8001C71.4072 36.8814 71.3345 36.9524 71.2515 36.9524H64.777C64.694 36.9524 64.6214 36.8814 64.6214 36.8001V-0.237732C64.6214 -0.318956 64.694 -0.390026 64.777 -0.390026H71.2412C71.3242 -0.390026 71.3968 -0.318956 71.3968 -0.237732V12.0575C71.3968 12.1285 71.4591 12.1894 71.5317 12.1894C71.5628 12.1894 71.6043 12.1793 71.6251 12.1488C72.3306 11.4787 75.018 9.28571 80.1125 9.28571C85.5806 9.28571 89.7517 13.7022 89.8139 19.5605V36.8001C89.8139 36.8814 89.7413 36.9524 89.6583 36.9524H83.1941Z" fill="black"/>
<path d="M126.866 6.90992C124.791 6.90992 123.11 5.26515 123.11 3.23456C123.11 1.20398 124.791 -0.440796 126.866 -0.440796C128.941 -0.440796 130.622 1.20398 130.622 3.23456C130.622 5.26515 128.941 6.90992 126.866 6.90992Z" fill="black"/>
<path d="M7.74105 51.8062V44.9631H10.0652C11.0924 44.8819 11.9951 45.623 12.0782 46.6282C12.0782 46.6688 12.0782 46.6992 12.0782 46.7399C12.0782 47.1764 11.881 47.5825 11.5282 47.8364L11.3726 47.9176L11.5386 47.9684C12.2545 48.2628 12.7215 48.943 12.7318 49.7045C12.7318 50.8721 11.7461 51.8163 10.5529 51.8062C10.4906 51.8062 10.4284 51.8062 10.3661 51.8062H7.74105ZM10.086 50.6893C10.6359 50.7503 11.1443 50.3644 11.2066 49.8263C11.2066 49.7857 11.2066 49.7553 11.2066 49.7147C11.1962 49.1563 10.7189 48.7095 10.1379 48.7298C10.1171 48.7298 10.0964 48.7298 10.0652 48.7298H9.15217V50.6893H10.086ZM9.17292 47.6333H9.79547C10.2209 47.6841 10.6048 47.3795 10.6567 46.9632C10.6567 46.9226 10.6567 46.8922 10.6567 46.8515C10.667 46.4251 10.3246 46.0698 9.88885 46.0596C9.85772 46.0596 9.82659 46.0596 9.79547 46.0596H9.17292V47.6333Z" fill="black"/>
<path d="M27.3929 51.9686C25.3696 52.0295 23.6783 50.466 23.6265 48.4861C23.5642 46.5063 25.1621 44.8514 27.1854 44.8006C27.258 44.8006 27.3306 44.8006 27.4033 44.8006C29.4369 44.7499 31.1282 46.3236 31.1905 48.3135C31.1905 48.3339 31.1905 48.3542 31.1905 48.3745C31.2008 50.3441 29.5822 51.9584 27.5693 51.9686C27.5174 51.9686 27.4655 51.9686 27.4033 51.9686M27.3929 46.1408C26.127 46.0799 25.048 47.0343 24.9857 48.2729C24.9234 49.5116 25.8988 50.5675 27.1646 50.6284C28.4305 50.6893 29.5096 49.735 29.5718 48.4963C29.5718 48.4557 29.5718 48.4151 29.5718 48.3745C29.6133 47.1866 28.6691 46.1814 27.4551 46.1408C27.4344 46.1408 27.4136 46.1408 27.3929 46.1408Z" fill="black"/>
<path d="M44.6479 51.9585C42.8944 51.9585 41.6286 50.9229 41.6286 49.4913V44.9631H43.2161V49.339C43.2161 50.0497 43.8075 50.6284 44.5234 50.6284C44.5753 50.6284 44.6168 50.6284 44.6583 50.6284C45.395 50.6995 46.0487 50.1715 46.1213 49.4608C46.1213 49.4202 46.1213 49.3898 46.1213 49.3492V44.9732H47.6673V49.5014C47.6673 50.933 46.3911 51.9686 44.6375 51.9686" fill="black"/>
<path d="M60.8342 51.8062V46.1611H58.6656V44.9631H64.5591V46.1713H62.4113V51.8062H60.8342Z" fill="black"/>
<path d="M77.8193 44.9631H76.2318V51.8062H77.8193V44.9631Z" fill="black"/>
<path d="M95.5518 53.4408C94.8773 53.4408 94.2133 53.2479 93.6322 52.8925C93.1238 52.5981 92.4079 52.192 91.9202 51.9483C90.0422 51.7757 88.6103 50.2325 88.6 48.3846C88.6518 46.3439 90.3846 44.7296 92.4701 44.7702C94.4934 44.8209 96.1121 46.4048 96.1639 48.3846C96.1847 49.7857 95.2924 51.0548 93.9539 51.5422L93.902 51.5625V51.6742L93.9643 51.7046C94.2652 51.7757 94.5453 51.8975 94.8047 52.06C95.1679 52.2427 95.5725 52.3443 95.9876 52.3544C96.1639 52.3544 96.3403 52.3443 96.5167 52.3037L95.7593 53.4205C95.6867 53.4306 95.6244 53.4408 95.5518 53.4306M92.3975 46.1408C91.142 46.0698 90.063 47.014 89.9903 48.2425C89.9177 49.471 90.8826 50.5269 92.1381 50.598C93.3936 50.669 94.4727 49.7248 94.5453 48.4963C94.5453 48.4557 94.5453 48.4252 94.5453 48.3846C94.5972 47.1967 93.6426 46.1916 92.4286 46.1408C92.4183 46.1408 92.4079 46.1408 92.3975 46.1408Z" fill="black"/>
<path d="M109.725 51.9585C107.972 51.9585 106.706 50.9229 106.706 49.4913V44.9631H108.293V49.339C108.293 50.0497 108.885 50.6284 109.611 50.6284C109.663 50.6284 109.704 50.6284 109.746 50.6284C110.483 50.6995 111.136 50.1715 111.209 49.4608C111.209 49.4202 111.209 49.3898 111.209 49.3492V44.9732H112.744V49.5014C112.744 50.933 111.468 51.9686 109.715 51.9686" fill="black"/>
<path d="M123.515 51.8062V44.9631H127.54V46.2017H125.102V47.745H127.094V49.004H125.102V50.5574H127.852V51.796H123.515V51.8062Z" fill="black"/>
</g>
<defs>
<clipPath id="clip0_465_1334">
<rect width="130" height="54" fill="white" transform="translate(0.62207)"/>
</clipPath>
</defs>
</svg>
