<svg id="PolyLabel" xmlns="http://www.w3.org/2000/svg" xmlns:xlink="http://www.w3.org/1999/xlink" width="36" height="18" viewBox="0 0 36 18">
  <defs>
    <linearGradient id="linear-gradient" x2="1" y2="1" gradientUnits="objectBoundingBox">
      <stop offset="0" stop-color="#2368d5"/>
      <stop offset="1" stop-color="#9648b9"/>
    </linearGradient>
    <clipPath id="clip-path">
      <rect id="Прямоугольник_30" data-name="Прямоугольник 30" width="12.444" height="14" transform="translate(0 0)" fill="#fff"/>
    </clipPath>
  </defs>
  <rect id="Прямоугольник_23" data-name="Прямоугольник 23" width="36" height="18" fill="url(#linear-gradient)"/>
  <g id="Сгруппировать_75" data-name="Сгруппировать 75" transform="translate(11.777 2)">
    <g id="Сгруппировать_74" data-name="Сгруппировать 74" transform="translate(0 0)" clip-path="url(#clip-path)">
      <path id="Контур_69" data-name="Контур 69" d="M1.6,9.3c-.011-.37.118-.252.54-.31a3.017,3.017,0,0,0,1.119-.4c.237-.143.485-.387.658-1.221.233-1.122.443-2.872.632-3.813A1.219,1.219,0,0,1,5.623,2.41a1.945,1.945,0,0,1,.34-.041c.736-.037.939.089.83.7-.01.056-.047.162-.063.216-.3,1.056-.609,2.111-.909,3.168a2.544,2.544,0,0,0-.123.586c-.019.505.132.549.61.416A8.665,8.665,0,0,0,8.836,6.154C11.845,4.126,11.239,2,8.877,1.7a25.049,25.049,0,0,0-5.434.056A23.182,23.182,0,0,0,.8,2.247a2.274,2.274,0,0,1-.43.06c-.143,0-.331-.03-.365-.214a.359.359,0,0,1,.169-.38A8.683,8.683,0,0,1,2.942.563,15.349,15.349,0,0,1,7.038,0a8.889,8.889,0,0,1,3.419.615,2.732,2.732,0,0,1,1.9,3.368,4.675,4.675,0,0,1-1.534,2.154A17.479,17.479,0,0,1,8.672,7.6a17.075,17.075,0,0,1-1.752.878c-.493.227-1.007.406-1.5.634a.619.619,0,0,0-.293.34c-.223.708-.421,1.428-.641,2.13a15.2,15.2,0,0,1-.8,2.136c-.235.282-.9.375-.939.172a13.674,13.674,0,0,1,.606-3.582c.133-.546-.009-.649-.57-.682C2.4,9.605,1.627,9.737,1.6,9.3" transform="translate(0 0)" fill="#fff"/>
    </g>
  </g>
</svg>
