<svg id="Сгруппировать_34" data-name="Сгруппировать 34" xmlns="http://www.w3.org/2000/svg" xmlns:xlink="http://www.w3.org/1999/xlink" width="146.865" height="62.203" viewBox="0 0 146.865 62.203">
  <defs>
    <clipPath id="clip-path">
      <rect id="Прямоугольник_8" data-name="Прямоугольник 8" width="146.865" height="62.203" fill="none"/>
    </clipPath>
  </defs>
  <g id="Сгруппировать_33" data-name="Сгруппировать 33" clip-path="url(#clip-path)">
    <path id="Контур_40" data-name="Контур 40" d="M53.6,69.416a15.883,15.883,0,0,1-7.539-1.93,16.728,16.728,0,0,1-8.025-19.24.61.61,0,0,0-.347-.735A6.091,6.091,0,0,0,35.324,47a6.215,6.215,0,0,0-2.528.582.614.614,0,0,0-.338.728,16.749,16.749,0,0,1-8,19.154A15.736,15.736,0,0,1,2.9,60.772a16.485,16.485,0,0,1-.957-12.595.518.518,0,0,0-.141-.539l-.961-.882a2.045,2.045,0,0,1-.656-1.412L0,41.015a.78.78,0,0,1,.714-.81l7.6-.64.019-.013a16.475,16.475,0,0,1,1.457-.892,15.887,15.887,0,0,1,7.541-1.93,15.625,15.625,0,0,1,11.626,5.2l.042.046.057-.025A15.743,15.743,0,0,1,41.467,41.9l.057.024.042-.046a15.633,15.633,0,0,1,11.576-5.145,15.881,15.881,0,0,1,7.54,1.93,16.635,16.635,0,0,1,8.2,10.736.171.171,0,0,1-.022.132.176.176,0,0,1-.112.079l-6.393,1.388a.187.187,0,0,1-.037,0,.172.172,0,0,1-.167-.137,9.214,9.214,0,0,0-4.555-6.105A8.707,8.707,0,0,0,53.458,43.7a9.048,9.048,0,0,0-8.053,5.059A9.509,9.509,0,0,0,49.146,61.39a8.7,8.7,0,0,0,4.132,1.054,8.966,8.966,0,0,0,6.7-3.061.177.177,0,0,1,.132-.06.167.167,0,0,1,.107.039l5.239,4.313a.175.175,0,0,1,.064.121.172.172,0,0,1-.04.127A15.588,15.588,0,0,1,53.6,69.416M17.015,43.7a8.707,8.707,0,0,0-4.135,1.055A9.509,9.509,0,0,0,9.139,57.386a9.049,9.049,0,0,0,8.053,5.059,8.707,8.707,0,0,0,4.135-1.055,9.509,9.509,0,0,0,3.741-12.631A9.049,9.049,0,0,0,17.015,43.7" transform="translate(0 -25.496)" fill="#fff"/>
    <path id="Контур_41" data-name="Контур 41" d="M370.124,43.3a.611.611,0,0,1-.481-.237l-11.735-15.19V43.123a.174.174,0,0,1-.173.173h-7.3a.174.174,0,0,1-.173-.173V.358a.174.174,0,0,1,.173-.174h7.3a.174.174,0,0,1,.173.174v25.78l10.9-13.633a.605.605,0,0,1,.473-.227h7.752a.087.087,0,0,1,.069.14L366.567,26.049a1.545,1.545,0,0,0,0,1.892L378.4,43.157a.087.087,0,0,1-.069.14Z" transform="translate(-243.139 -0.128)" fill="#fff"/>
    <path id="Прямоугольник_6" data-name="Прямоугольник 6" d="M.566,0H7.083A.567.567,0,0,1,7.65.567V30.449a.566.566,0,0,1-.566.566H.566A.566.566,0,0,1,0,30.449V.566A.566.566,0,0,1,.566,0Z" transform="translate(138.779 12.151)" fill="#fff"/>
    <path id="Контур_42" data-name="Контур 42" d="M257.426,43.3a.173.173,0,0,1-.173-.173V24.814l0-.143a6.366,6.366,0,0,0-6.573-6.291h-.064l0,.012a7.826,7.826,0,0,0-6.487,3.257l-.015.022V43.128a.173.173,0,0,1-.173.173h-7.3a.173.173,0,0,1-.173-.173V.362a.174.174,0,0,1,.173-.174h7.3a.174.174,0,0,1,.173.174v14.2a.149.149,0,0,0,.253.108c.8-.775,3.838-3.3,9.583-3.3,6.175,0,10.885,5.1,10.956,11.86v.086h0V43.128a.173.173,0,0,1-.173.173Z" transform="translate(-164.142 -0.131)" fill="#fff"/>
    <path id="Контур_43" data-name="Контур 43" d="M456.7,8.492a4.246,4.246,0,1,1,4.246-4.246A4.251,4.251,0,0,1,456.7,8.492" transform="translate(-314.082)" fill="#fff"/>
    <path id="Контур_44" data-name="Контур 44" d="M26.295,179.3v-7.9h2.627a2.115,2.115,0,0,1,2.285,2.052,1.528,1.528,0,0,1-.628,1.266l-.176.1.192.061a2.207,2.207,0,0,1,1.347,2,2.447,2.447,0,0,1-2.678,2.419Zm1.614-1.295h1.025a1.143,1.143,0,0,0,1.279-1.124,1.169,1.169,0,0,0-1.279-1.137H27.909Zm0-3.53h.708a.875.875,0,0,0,.975-.9.889.889,0,0,0-.975-.909h-.708Z" transform="translate(-18.253 -118.982)" fill="#fff"/>
    <path id="Контур_45" data-name="Контур 45" d="M89.2,179.059a4.141,4.141,0,1,1,0-8.278,4.166,4.166,0,0,1,4.275,4.127,4.124,4.124,0,0,1-4.275,4.152m0-6.731a2.589,2.589,0,1,0,2.458,2.579,2.487,2.487,0,0,0-2.458-2.579" transform="translate(-58.96 -118.552)" fill="#fff"/>
    <path id="Контур_46" data-name="Контур 46" d="M154.88,179.478c-1.978,0-3.413-1.2-3.413-2.848V171.4h1.792v5.05a1.485,1.485,0,0,0,1.647,1.479,1.508,1.508,0,0,0,1.659-1.479V171.4h1.741v5.227c0,1.651-1.441,2.848-3.426,2.848" transform="translate(-105.144 -118.983)" fill="#fff"/>
    <path id="Контур_47" data-name="Контур 47" d="M216.836,179.3v-6.516h-2.448V171.4h6.662v1.4h-2.435v6.5Z" transform="translate(-148.823 -118.983)" fill="#fff"/>
    <rect id="Прямоугольник_7" data-name="Прямоугольник 7" width="1.792" height="7.899" transform="translate(85.411 52.419)" fill="#fff"/>
    <path id="Контур_48" data-name="Контур 48" d="M332.857,180.726a3.974,3.974,0,0,1-2.162-.633c-.577-.342-1.38-.808-1.932-1.091a4.131,4.131,0,0,1-3.745-4.11,4.271,4.271,0,0,1,8.538,0,3.848,3.848,0,0,1-2.5,3.649l-.06.02v.134l.07.039a3.353,3.353,0,0,1,.953.409,2.969,2.969,0,0,0,1.334.339,2.29,2.29,0,0,0,.6-.064l-.857,1.293a1.218,1.218,0,0,1-.238.015m-3.563-8.426a2.583,2.583,0,1,0,2.433,2.592,2.494,2.494,0,0,0-2.433-2.592" transform="translate(-225.619 -118.522)" fill="#fff"/>
    <path id="Контур_49" data-name="Контур 49" d="M395.246,179.478c-1.978,0-3.413-1.2-3.413-2.848V171.4h1.792v5.05a1.485,1.485,0,0,0,1.647,1.479,1.508,1.508,0,0,0,1.659-1.479V171.4h1.741v5.227c0,1.651-1.44,2.848-3.426,2.848" transform="translate(-272 -118.983)" fill="#fff"/>
    <path id="Контур_50" data-name="Контур 50" d="M453.93,179.3v-7.9h4.544v1.434h-2.752v1.78h2.244v1.459h-2.244v1.793h3.107V179.3Z" transform="translate(-315.106 -118.983)" fill="#fff"/>
  </g>
</svg>
